<?xml version="1.0" encoding="UTF-8"?>
<svg version="1.1" xmlns="http://www.w3.org/2000/svg" width="2172" height="724">
<path d="M0 0 C716.76 0 1433.52 0 2172 0 C2172 238.92 2172 477.84 2172 724 C1455.24 724 738.48 724 0 724 C0 485.08 0 246.16 0 0 Z " fill="#FCFCFC" transform="translate(0,0)"/>
<path d="M0 0 C0.33 0.33 0.66 0.66 1 1 C3.01578425 1.30615671 5.03827381 1.56831488 7.0625 1.8125 C31.56968661 5.20311788 54.92031563 15.13888587 74 31 C74.56025879 31.45632813 75.12051758 31.91265625 75.69775391 32.3828125 C106.34953851 57.39239514 123.51636333 90.48548769 131 129 C131.28230469 130.33417969 131.28230469 130.33417969 131.5703125 131.6953125 C135.16612325 159.35036612 129.82992587 189.98242058 116.00732422 214.2265625 C114.99428058 216.01006928 114.02753024 217.81306894 113.06640625 219.625 C94.30665646 254.45775404 61.86766697 276.85397447 24.96826172 289.12402344 C18.94586148 290.90132004 12.83011836 291.82961782 6.60546875 292.5625 C3.05104785 292.87206915 3.05104785 292.87206915 0 294 C-33.686 295.8531933 -65.56006322 291.11373997 -96 276 C-96.98685791 275.51877686 -96.98685791 275.51877686 -97.99365234 275.02783203 C-124.45181103 262.02006313 -144.69635231 242.32774107 -161 218 C-161.63035156 217.08992187 -162.26070312 216.17984375 -162.91015625 215.2421875 C-164 213 -164 213 -163.94140625 210.95703125 C-162.68096307 208.33677385 -161.02826147 206.70653724 -158.9375 204.6875 C-158.1228125 203.89859375 -157.308125 203.1096875 -156.46875 202.296875 C-153.6894985 199.71111569 -150.84628571 197.21671627 -147.96484375 194.74609375 C-145.26621639 192.34790999 -142.75685425 189.78388476 -140.25 187.1875 C-138.30779895 185.29924898 -136.32578527 183.5209896 -134.28125 181.74609375 C-129.91884297 177.95731492 -125.70217431 174.02732928 -121.5 170.0625 C-120.77296875 169.37865234 -120.0459375 168.69480469 -119.296875 167.99023438 C-117.53008286 166.32805493 -115.76447952 164.66463361 -114 163 C-110.5465583 164.48108873 -108.35078674 166.42821699 -105.734375 169.10546875 C-104.92613281 169.92466797 -104.11789062 170.74386719 -103.28515625 171.58789062 C-102.44855469 172.44576172 -101.61195313 173.30363281 -100.75 174.1875 C-95.01657347 180.04243557 -89.22425659 185.67059164 -83 191 C-81.81896494 192.05563683 -80.64052649 193.11418669 -79.46484375 194.17578125 C-68.08815567 204.34106272 -55.42646432 214.39478366 -41.125 220.125 C-39.98417969 220.59292969 -39.98417969 220.59292969 -38.8203125 221.0703125 C-20.55216428 227.09222286 -0.3424262 225.42884615 16.75 216.8125 C36.40649208 205.49074599 49.73354862 188.31032171 55.6796875 166.5078125 C59.9178907 147.40686933 56.93020856 125.9729412 46.75 109.25 C33.7360524 90.05372155 16.49977306 78.90379669 -6 74 C-26.69460899 72.22861966 -44.30270583 77.18088777 -60.41796875 90.71875 C-68.66214092 98.00255719 -76.64798215 105.49972534 -84.33520508 113.37182617 C-86.96816716 116.05031002 -89.65522493 118.58776022 -92.51707458 121.02125549 C-97.87980921 125.69549189 -102.87225458 130.73208635 -107.89477539 135.76538086 C-108.96812187 136.83736956 -110.04168037 137.90914601 -111.11543274 138.98072815 C-114.0102296 141.87099553 -116.90188966 144.76438173 -119.79283071 147.6585052 C-122.83095886 150.69918025 -125.87154338 153.73739748 -128.91172791 156.77601624 C-134.01497237 161.87744578 -139.11611488 166.98097003 -144.21606445 172.08569336 C-150.09679965 177.97186986 -155.9811284 183.85443548 -161.86733633 189.73513883 C-166.93777936 194.80103141 -172.00625545 199.86888572 -177.07311815 204.93835932 C-180.09200145 207.95879477 -183.11153993 210.97856691 -186.13286018 213.99656487 C-188.97432485 216.83512267 -191.81329741 219.67615041 -194.65043449 222.51903343 C-195.68673353 223.55664505 -196.72386645 224.59342469 -197.76193237 225.62926865 C-202.87199145 230.72940433 -207.88870473 235.84927972 -212.56951046 241.34920597 C-214.75434783 243.8705222 -217.11290347 246.16907045 -219.5 248.5 C-222.60917549 251.55344796 -225.60203137 254.63380923 -228.375 258 C-247.31570093 279.94787383 -277.51385496 293.25271659 -306 296 C-308.9073716 296.16697943 -311.81101211 296.23226963 -314.72265625 296.2734375 C-315.94474037 296.29222961 -315.94474037 296.29222961 -317.19151306 296.31140137 C-334.97365717 296.53199702 -351.89327828 296.50131255 -369 291 C-369.73460449 290.77006348 -370.46920898 290.54012695 -371.22607422 290.30322266 C-389.83275591 284.31841928 -407.10849836 274.60593889 -422 262 C-423.25296875 260.95005859 -423.25296875 260.95005859 -424.53125 259.87890625 C-438.01433611 248.20604929 -448.9534806 232.87425127 -457 217 C-457.41636719 216.25105469 -457.83273437 215.50210938 -458.26171875 214.73046875 C-462.32500914 207.20633165 -464.79305655 199.13794247 -467.35839844 191.01318359 C-467.87769582 189.38375961 -468.42315697 187.76268903 -468.9765625 186.14453125 C-471.03118277 179.94953983 -471.82121696 173.6819625 -472.5703125 167.22265625 C-472.89830438 163.99163307 -472.89830438 163.99163307 -474 161 C-475.50849643 133.24366561 -471.9754598 107.74040015 -459 83 C-458.66629395 82.3507959 -458.33258789 81.7015918 -457.98876953 81.03271484 C-440.22565038 46.75693388 -409.26782556 20.84569911 -373 8 C-371.95972656 7.62230469 -370.91945313 7.24460937 -369.84765625 6.85546875 C-353.96647519 1.50833717 -337.44763361 0.41643678 -320.8125 0.5 C-319.92390289 0.50076538 -319.03530579 0.50153076 -318.11978149 0.50231934 C-303.55106085 0.54739896 -290.03459272 1.82622347 -276 6 C-274.10701172 6.53560547 -274.10701172 6.53560547 -272.17578125 7.08203125 C-267.2241085 8.61077646 -262.56680242 10.49868307 -258.01171875 12.97265625 C-255.86324193 14.10638035 -255.86324193 14.10638035 -252.96875 15.23046875 C-246.64964399 17.90054899 -240.76458645 21.5487321 -234.83007812 24.96875 C-233.88197266 25.49984375 -232.93386719 26.0309375 -231.95703125 26.578125 C-231.10085205 27.06700195 -230.24467285 27.55587891 -229.36254883 28.05957031 C-226.65594183 29.13695485 -225.65467928 29.10448114 -223 28 C-221.17811004 26.6496252 -219.41172956 25.22303346 -217.6875 23.75 C-213.56969394 20.28905576 -209.42786736 17.05030862 -205 14 C-203.86256498 17.41230505 -203.65093249 20.62579233 -203.42749023 24.18334961 C-203.37857635 24.91244034 -203.32966248 25.64153107 -203.27926636 26.39271545 C-203.11817524 28.8123354 -202.96311038 31.23229564 -202.80859375 33.65234375 C-202.69808711 35.34893351 -202.58741238 37.04551233 -202.47657776 38.74208069 C-202.244388 42.31217462 -202.015367 45.88245569 -201.78833008 49.45288086 C-201.50068881 53.97007404 -201.20370004 58.48659403 -200.90394497 63.0029974 C-200.67204562 66.51806694 -200.44622464 70.03350931 -200.22197151 73.54907417 C-200.11516218 75.21011964 -200.00639193 76.87104048 -199.89541435 78.53181267 C-199.0860108 90.70266562 -198.87765719 102.80329005 -199 115 C-222.17194882 115.10141366 -245.33246218 115.07336108 -268.5 114.5625 C-269.91156876 114.5330278 -269.91156876 114.5330278 -271.35165405 114.50296021 C-281.59993806 114.28444788 -291.78947055 113.95694359 -302 113 C-300.64841788 110.06995147 -299.09811506 107.72308453 -297.03125 105.25 C-296.46019531 104.5590625 -295.88914062 103.868125 -295.30078125 103.15625 C-294.10026042 101.71875 -292.89973958 100.28125 -291.69921875 98.84375 C-291.12816406 98.1528125 -290.55710937 97.461875 -289.96875 96.75 C-289.44732422 96.12609375 -288.92589844 95.5021875 -288.38867188 94.859375 C-286.98833583 92.98438215 -285.978424 91.12109183 -285 89 C-300.95651341 76.02976145 -318.77716185 72.27074021 -339 74 C-356.84894637 76.87270812 -373.52064769 86.49346711 -384.75 100.625 C-394.70474325 114.62943271 -399.59374985 129.51721431 -399.5 146.6875 C-399.49355469 147.92338867 -399.48710938 149.15927734 -399.48046875 150.43261719 C-399.28516008 160.22117949 -398.01375973 168.05144872 -394 177 C-393.6999707 177.67981934 -393.39994141 178.35963867 -393.09082031 179.06005859 C-389.36093829 187.38860759 -385.28125888 195.28780236 -379 202 C-378.30777344 202.74507812 -377.61554688 203.49015625 -376.90234375 204.2578125 C-372.10166844 208.98635746 -367.03010454 212.34779055 -361.0625 215.375 C-360.43093994 215.69670166 -359.79937988 216.01840332 -359.14868164 216.34985352 C-348.63560321 221.3911738 -338.64343579 222.50141886 -327.0625 222.4375 C-325.78181641 222.45748047 -324.50113281 222.47746094 -323.18164062 222.49804688 C-314.71960606 222.49373611 -307.80696459 221.25428217 -300 218 C-299.25613037 217.69199463 -298.51226074 217.38398926 -297.74584961 217.06665039 C-280.74679139 209.61027782 -267.61115473 197.03465446 -255.609375 183.09765625 C-251.11733146 177.90958318 -246.20947293 173.16100293 -241.31640625 168.35546875 C-237.22195396 164.30544089 -233.30871331 160.17851321 -229.57421875 155.79296875 C-227.95322749 153.94672808 -226.25434898 152.21928263 -224.5 150.5 C-222.12775898 148.16974555 -219.90886483 145.77895594 -217.75 143.25 C-214.81720378 139.8416152 -211.69927099 136.65600836 -208.5 133.5 C-205.38419758 130.42610481 -202.34122703 127.33297786 -199.5 124 C-196.6587716 120.66702053 -193.61577632 117.5739187 -190.5 114.5 C-187.44683383 111.48768569 -184.45927609 108.46451123 -181.6875 105.1875 C-177.80143317 100.62395905 -173.51712623 96.46414144 -169.23706055 92.27416992 C-166.34251318 89.42193217 -163.56706613 86.53720941 -160.93359375 83.44140625 C-155.90340934 77.61705605 -150.39636131 72.24753488 -144.94848633 66.81811523 C-143.06671726 64.94170525 -141.19035262 63.06001031 -139.31445312 61.17773438 C-133.37923821 55.23897939 -127.42934523 49.40875413 -121 44 C-119.97749041 43.10086101 -118.95658097 42.19989812 -117.9375 41.296875 C-84.30817986 12.13953892 -44.7259832 -3.03789498 0 0 Z " fill="#0BAF2A" transform="translate(1628,254)"/>
<path d="M0 0 C1.59860978 1.35720898 3.18125887 2.7333748 4.75 4.125 C5.71421875 4.95773437 6.6784375 5.79046875 7.671875 6.6484375 C19.47291932 17.00234371 28.01607382 28.57085943 35.75 42.125 C36.26691406 42.95128906 36.78382813 43.77757812 37.31640625 44.62890625 C39.07914185 47.6980835 40.4030276 50.85277385 41.75 54.125 C42.45769531 55.795625 42.45769531 55.795625 43.1796875 57.5 C50.78744371 76.58107505 53.98427609 96.34743136 54 116.8125 C54.00067474 117.59711609 54.00134949 118.38173218 54.00204468 119.19012451 C53.97767374 137.02373208 51.85516429 153.24126516 46.34667969 170.23339844 C45.79608641 171.97889626 45.30533823 173.74297096 44.8203125 175.5078125 C39.71777253 193.88598745 29.05603439 210.72026208 16.75 225.125 C15.72132813 226.35476563 15.72132813 226.35476563 14.671875 227.609375 C-1.36524283 246.1847417 -22.60639136 258.01984284 -46.25 264.125 C-46.89259766 264.30305176 -47.53519531 264.48110352 -48.19726562 264.66455078 C-56.26320472 266.61818408 -64.4283971 266.49717597 -72.67822266 266.49560547 C-75.21717236 266.49994391 -77.75432909 266.53625502 -80.29296875 266.57421875 C-105.728461 266.74839638 -129.79596697 258.8099004 -149.25 242.125 C-150.14074219 241.36703125 -151.03148437 240.6090625 -151.94921875 239.828125 C-159.58098114 233.16530249 -159.58098114 233.16530249 -161.25 229.125 C-161.91 229.125 -162.57 229.125 -163.25 229.125 C-163.25 283.245 -163.25 337.365 -163.25 393.125 C-190.64 393.125 -218.03 393.125 -246.25 393.125 C-246.25 257.165 -246.25 121.205 -246.25 -18.875 C-220.84 -18.875 -195.43 -18.875 -169.25 -18.875 C-169.25 -6.335 -169.25 6.205 -169.25 19.125 C-164.17642488 14.94264198 -164.17642488 14.94264198 -159.9375 10.3125 C-153.37740743 2.65905867 -145.67113643 -3.39001648 -137.25 -8.875 C-136.38117188 -9.45121094 -135.51234375 -10.02742188 -134.6171875 -10.62109375 C-94.09927842 -35.95889483 -37.0206345 -29.06628169 0 0 Z " fill="#0542A5" transform="translate(2027.25,283.875)"/>
<path d="M0 0 C1.04566635 -0.00830841 1.04566635 -0.00830841 2.11245728 -0.01678467 C16.18519002 -0.09835853 29.71377169 1.49359515 43.375 5 C44.40898926 5.26458008 45.44297852 5.52916016 46.50830078 5.80175781 C82.99722505 15.41581099 114.53355472 38.96051579 134.375 71 C154.2285055 105.07219644 160.57198297 145.53215831 150.96484375 184.109375 C147.74317572 196.23292046 143.64441006 207.3868888 137.375 218.25 C136.74851562 219.36246094 136.12203125 220.47492188 135.4765625 221.62109375 C115.54457301 255.50547588 83.22044151 278.22708809 45.375 288.25 C0.32300797 299.04570098 -47.36521745 294.15983032 -87.37890625 270.046875 C-90.21436711 268.20726565 -92.92995938 266.28833768 -95.625 264.25 C-96.4190625 263.67507813 -97.213125 263.10015625 -98.03125 262.5078125 C-110.8995326 252.77304027 -122.01236442 240.872499 -130.625 227.25 C-130.98142578 226.68990234 -131.33785156 226.12980469 -131.70507812 225.55273438 C-137.52867795 216.2542794 -141.78239825 206.49267979 -145.625 196.25 C-146.22828125 194.68572266 -146.22828125 194.68572266 -146.84375 193.08984375 C-159.28351354 157.32552358 -154.65384148 114.55004381 -138.68676758 80.85009766 C-121.79419661 46.40460601 -91.77444827 20.67590891 -55.625 8.25 C-36.97676968 2.21000293 -19.50518243 0.10150327 0 0 Z " fill="#0542A5" transform="translate(859.625,259.75)"/>
<path d="M0 0 C2.95757185 0.00315306 5.91413354 -0.02034966 8.87158203 -0.0456543 C23.66314325 -0.09420572 37.78276311 1.05050314 51.72705078 6.31567383 C52.72220703 6.62891602 53.71736328 6.9421582 54.74267578 7.26489258 C73.36259274 13.32274227 89.35756629 24.17182184 103.72705078 37.31567383 C102.14819603 41.20999188 99.48603343 43.7976617 96.52783203 46.67504883 C96.01455856 47.18312073 95.5012851 47.69119263 94.97245789 48.21466064 C93.33285379 49.83651032 91.68673925 51.45153043 90.03955078 53.06567383 C87.88637043 55.18200112 85.73645832 57.30156825 83.59033203 59.42504883 C83.07173615 59.93805542 82.55314026 60.45106201 82.01882935 60.97961426 C78.59352766 64.39136633 75.36144022 67.91150923 72.2277832 71.59008789 C69.86544358 74.30637493 67.30309069 76.80414172 64.72705078 79.31567383 C59.32705137 84.64899616 53.95146438 89.97905343 49.72705078 96.31567383 C45.87338268 94.7456609 43.64339571 92.23201876 40.72705078 89.31567383 C35.24034089 84.54088602 29.61554584 81.60144896 22.72705078 79.31567383 C21.71126953 78.95602539 20.69548828 78.59637695 19.64892578 78.22583008 C2.25094999 73.37440371 -17.04647671 77.77186525 -32.49560547 86.08129883 C-47.46217393 94.60802428 -56.52235861 109.87376195 -61.14794922 126.12817383 C-65.47343226 147.34363827 -62.92101745 171.90229653 -51.35107422 190.38598633 C-49.42305102 193.12856197 -47.41119267 195.7345989 -45.27294922 198.31567383 C-44.75345703 198.96020508 -44.23396484 199.60473633 -43.69873047 200.26879883 C-34.57466001 210.47304892 -20.2774886 216.37854086 -6.84716797 217.18676758 C-5.66767578 217.22930664 -4.48818359 217.2718457 -3.27294922 217.31567383 C-2.54156738 217.34290527 -1.81018555 217.37013672 -1.05664062 217.39819336 C16.34685836 217.96372705 28.94931856 215.6883132 42.10205078 203.44067383 C42.89353516 202.65950195 43.68501953 201.87833008 44.50048828 201.07348633 C46.72705078 199.31567383 46.72705078 199.31567383 50.72705078 199.31567383 C53.08959961 201.20825195 53.08959961 201.20825195 55.68408203 203.84692383 C56.15013351 204.31626343 56.616185 204.78560303 57.09635925 205.26916504 C58.58700581 206.77555375 60.06298809 208.29549144 61.53955078 209.81567383 C62.52110174 210.80872291 63.50351558 211.8009199 64.48681641 212.79223633 C69.21487061 217.58083396 73.80092553 222.45705285 78.18676758 227.5637207 C80.57343972 230.27837585 83.1400166 232.79380856 85.72705078 235.31567383 C89.72858772 239.26248039 93.55446079 243.27582568 97.19189453 247.56567383 C98.77258421 249.36757961 100.44037039 251.02649972 102.16455078 252.69067383 C104.72705078 255.31567383 104.72705078 255.31567383 104.72705078 257.31567383 C101.25971012 260.5522979 97.47266787 263.40934354 93.72705078 266.31567383 C92.93685547 266.9318457 92.14666016 267.54801758 91.33251953 268.18286133 C75.80825677 279.660766 57.37535979 286.09341518 38.72705078 290.31567383 C37.78603516 290.53223633 36.84501953 290.74879883 35.87548828 290.97192383 C-5.36935071 299.87557161 -49.72831358 290.51917452 -85.10449219 268.15795898 C-114.04640811 248.59512732 -134.54949432 218.69217205 -143.72753906 185.26293945 C-144.21685927 183.51593052 -144.75180924 181.78185398 -145.29248047 180.05004883 C-148.06517957 169.4894897 -148.64342742 159.12238139 -148.58544922 148.25317383 C-148.58329407 147.52612244 -148.58113892 146.79907104 -148.57891846 146.04998779 C-148.38984762 106.24347288 -133.70865044 71.09742676 -106.27294922 42.31567383 C-105.55494141 41.53321289 -104.83693359 40.75075195 -104.09716797 39.94458008 C-87.1033866 21.99069807 -64.34086678 11.0845053 -40.83544922 4.44067383 C-40.16368652 4.24973145 -39.49192383 4.05878906 -38.79980469 3.86206055 C-25.89009486 0.42508011 -13.28102128 -0.02953283 0 0 Z " fill="#0642A5" transform="translate(581.27294921875,259.684326171875)"/>
<path d="M0 0 C27.39 0 54.78 0 83 0 C83 144.21 83 288.42 83 437 C55.61 437 28.22 437 0 437 C0 292.79 0 148.58 0 0 Z " fill="#0440A4" transform="translate(1048,110)"/>
<path d="M0 0 C3.03714157 10.58797971 6.01841088 21.15280404 8 32 C8.16918945 32.91177002 8.33837891 33.82354004 8.51269531 34.76293945 C9.99034566 43.37705946 10.39726731 51.83384554 10.375 60.5625 C10.37545319 61.25777802 10.37590637 61.95305603 10.37637329 62.66940308 C10.34884281 77.11131487 8.93372403 90.71264316 3 104 C2.5118848 105.31228531 2.03164654 106.62752259 1.55859375 107.9453125 C-3.31593159 121.07655812 -11.29118989 132.81225429 -19.15429688 144.29882812 C-42.93010972 179.09454152 -60.77789006 212.20209932 -69 254 C-69.27154907 255.2209436 -69.27154907 255.2209436 -69.54858398 256.46655273 C-73.67194087 279.60775038 -67.83310253 303.23320415 -55.80834961 322.99902344 C-54.82079104 324.63606503 -53.90311216 326.31489895 -53 328 C-53.33 328.66 -53.66 329.32 -54 330 C-65.73493532 317.99557765 -73.14510556 304.90415781 -80.47900391 289.91113281 C-84.68145413 281.41519489 -89.33591708 273.59413858 -95 266 C-95.6290625 265.14535156 -96.258125 264.29070312 -96.90625 263.41015625 C-108.38992373 249.17721317 -126.34455705 243.31275761 -143.4375 239.0625 C-157.14572852 235.64942173 -169.97355584 231.15330041 -181 222 C-181.76699219 221.36835938 -182.53398437 220.73671875 -183.32421875 220.0859375 C-190.18074383 213.86966519 -194.21326692 206.32157438 -198 198 C-198.32637451 197.29689697 -198.65274902 196.59379395 -198.98901367 195.86938477 C-202.05542279 188.80131545 -203.66372423 181.46425082 -205.23754883 173.95825195 C-205.68924761 171.80416592 -206.15305879 169.65296847 -206.61914062 167.50195312 C-210.16861891 150.96022914 -210.16861891 150.96022914 -210.0625 144.0625 C-210.04896484 142.90427734 -210.04896484 142.90427734 -210.03515625 141.72265625 C-210.02355469 141.15417969 -210.01195312 140.58570313 -210 140 C-184.1192295 135.0800419 -156.31281753 138.43881787 -134.1171875 152.875 C-131.33937526 154.83767076 -128.66472027 156.88660117 -126 159 C-124.9996875 159.7734375 -123.999375 160.546875 -122.96875 161.34375 C-115.97889812 166.92151059 -110.43914661 172.92910941 -105 180 C-103.98559571 181.1929966 -102.96605057 182.38167797 -101.9375 183.5625 C-100 186 -100 186 -100 188 C-99.34 187.67 -98.68 187.34 -98 187 C-98.47144464 177.67035874 -99.21657185 168.4617514 -100.5 159.20703125 C-101.88516892 148.25434179 -102.23890751 137.28082769 -102.25 126.25 C-102.25100708 125.54756165 -102.25201416 124.84512329 -102.25305176 124.12139893 C-102.24273752 113.45374703 -101.677178 103.376925 -99 93 C-98.69835937 91.77925781 -98.39671875 90.55851562 -98.0859375 89.30078125 C-89.54831971 57.19795012 -68.83090572 32.44360707 -40.52416992 15.64501953 C-29.38741005 9.24218717 -13.28023541 0 0 0 Z " fill="#0CB02B" transform="translate(271,116)"/>
<path d="M0 0 C14.39329887 -1.33891152 28.53545627 7.50237678 39.4375 16.0625 C49.59288314 24.76711412 58.91782053 34.21581689 67.01000977 44.86547852 C71.48356393 50.73106286 76.39837218 56.10870998 81.50146484 61.4296875 C82.97147853 62.9701124 84.4175932 64.5305223 85.86328125 66.09375 C100.45466126 81.5913498 121.74531353 96.18826314 143.54296875 97.2734375 C152.73216411 97.54865619 161.25311127 97.07691972 170 94 C170.98097656 93.6596875 171.96195313 93.319375 172.97265625 92.96875 C185.41542738 88.21641419 195.63729728 80.36270272 205 71 C207.55589888 70.90493948 210.08467972 70.87443239 212.64086914 70.88647461 C213.84077736 70.88625557 213.84077736 70.88625557 215.06492615 70.8860321 C217.72169665 70.88673145 220.37839793 70.89452482 223.03515625 70.90234375 C224.87218691 70.90420785 226.70921806 70.90563179 228.54624939 70.90663147 C233.39109662 70.91045725 238.23591408 70.92028804 243.08074951 70.93133545 C248.02062578 70.94154828 252.96050685 70.94612881 257.90039062 70.95117188 C267.60027353 70.96191026 277.30013429 70.9789874 287 71 C286.54361886 72.58021097 286.08247591 74.15904709 285.61938477 75.73730469 C285.36310806 76.61666687 285.10683136 77.49602905 284.8427887 78.40203857 C283.59732689 82.24127105 281.86075136 85.71174326 279.9375 89.25 C279.54755859 89.97453369 279.15761719 90.69906738 278.75585938 91.44555664 C271.38328858 104.82958569 261.93379263 116.34656102 251 127 C250.51144531 127.54527344 250.02289063 128.09054687 249.51953125 128.65234375 C229.55298347 150.20563705 199.27420208 162.45821206 171 168 C169.62787354 168.26961548 169.62787354 168.26961548 168.22802734 168.54467773 C160.99370033 169.85859131 154.03293727 170.31812462 146.6875 170.25 C145.58865479 170.24105713 144.48980957 170.23211426 143.35766602 170.22290039 C109.81308088 169.74549423 76.25088631 157.23470081 51 135 C50.14792969 134.26910156 49.29585937 133.53820312 48.41796875 132.78515625 C24.11457042 111.54301546 9.91011508 83.99130196 2 53 C1.71302246 51.93958496 1.42604492 50.87916992 1.13037109 49.78662109 C-1.15070104 40.54552664 -1.40090214 31.69999401 -1.28125 22.24560547 C-1.24952125 19.71176725 -1.24020815 17.17855035 -1.234375 14.64453125 C-1.22522444 13.02863817 -1.21485497 11.41275142 -1.203125 9.796875 C-1.19887512 9.0417865 -1.19462524 8.286698 -1.19024658 7.50872803 C-1.11738541 2.23477083 -1.11738541 2.23477083 0 0 Z " fill="#0541A4" transform="translate(114,376)"/>
<path d="M0 0 C8.48017423 2.28974836 16.57104004 4.60419899 24.26953125 8.8828125 C25.45869141 9.49382812 25.45869141 9.49382812 26.671875 10.1171875 C39.79421093 16.97702831 51.30699433 25.14751314 61.86181641 35.51464844 C63.10099194 36.71900842 64.37610601 37.88615525 65.65625 39.046875 C90.71045366 62.3468346 103.39166391 97.70550307 107.26953125 130.8828125 C107.26953125 138.4728125 107.26953125 146.0628125 107.26953125 153.8828125 C43.24953125 153.8828125 -20.77046875 153.8828125 -86.73046875 153.8828125 C-86.73046875 127.8828125 -86.73046875 127.8828125 -85.73046875 123.8828125 C-45.80046875 123.8828125 -5.87046875 123.8828125 35.26953125 123.8828125 C26.55573241 101.22693552 14.71860165 85.04842929 -7.73046875 74.8828125 C-26.11080761 67.51465923 -45.60712209 66.21242871 -64.68359375 72.0078125 C-67.73046875 72.8828125 -67.73046875 72.8828125 -71.73046875 72.8828125 C-71.2236374 67.48818288 -69.80431944 63.26442351 -67.29296875 58.4453125 C-66.93807373 57.75429443 -66.58317871 57.06327637 -66.2175293 56.35131836 C-56.73824342 38.22800734 -44.52970315 21.99842834 -31.0703125 6.6484375 C-28.75300433 4.02547507 -28.75300433 4.02547507 -27.171875 1.4921875 C-21.32173677 -7.3264185 -8.64348346 -2.15303216 0 0 Z " fill="#0742A5" transform="translate(300.73046875,256.1171875)"/>
<path d="M0 0 C1.13598633 0.00829834 2.27197266 0.01659668 3.44238281 0.02514648 C21.31429587 0.38233052 38.00427744 5.42603362 51.078125 18.13671875 C61.14340646 28.79940001 67.54989376 40.98154662 70.25 55.4375 C70.43433594 56.38753906 70.61867188 57.33757812 70.80859375 58.31640625 C73.77691718 79.30481703 69.42868893 102.00094335 57.25 119.4375 C46.46333373 133.36533832 31.4938836 141.23796922 14.25 144.4375 C10.11308382 144.81989851 6.02728989 144.86927904 1.875 144.8125 C0.77937744 144.80089844 -0.31624512 144.78929687 -1.44506836 144.77734375 C-19.40967141 144.4150951 -35.68005159 139.4273491 -48.71875 126.5625 C-49.3890625 125.86125 -50.059375 125.16 -50.75 124.4375 C-51.2965625 123.921875 -51.843125 123.40625 -52.40625 122.875 C-65.33272061 109.67349811 -69.0714708 89.50985347 -69.1875 71.8125 C-68.91891479 51.38323714 -64.291803 33.68262923 -49.46484375 18.98828125 C-35.43529932 5.8065654 -19.22092901 -0.18265923 0 0 Z " fill="#FBFCFC" transform="translate(1926.75,332.5625)"/>
<path d="M0 0 C11.12398163 9.22476526 17.63470292 21.07233485 21 35 C21.17515137 35.66265869 21.35030273 36.32531738 21.53076172 37.00805664 C26.32878947 56.28363021 23.3863469 79.47881912 14 97 C5.96650261 110.15552592 -4.14213652 117.89455475 -18 124 C-18.75410156 124.33902344 -19.50820313 124.67804688 -20.28515625 125.02734375 C-38.26924305 132.44993399 -59.93757988 130.49943741 -77.67578125 123.5625 C-90.39196948 117.78115103 -99.71883064 108.88513996 -107 97 C-107.76957031 95.81470703 -107.76957031 95.81470703 -108.5546875 94.60546875 C-110.17329791 91.68759539 -111.11651452 88.88546711 -112.0625 85.6875 C-112.38347656 84.61886719 -112.70445312 83.55023438 -113.03515625 82.44921875 C-113.35355469 81.31097656 -113.67195312 80.17273438 -114 79 C-114.35964844 77.8140625 -114.71929688 76.628125 -115.08984375 75.40625 C-119.91661789 55.60440319 -116.31128453 32.39929817 -106.25 14.8125 C-95.45070076 -1.02783835 -81.21769134 -9.30422929 -63 -14 C-41.33418482 -17.88393663 -17.6707874 -13.32728088 0 0 Z " fill="#FBFCFC" transform="translate(907,350)"/>
<path d="M0 0 C0.33 0 0.66 0 1 0 C1.43656278 6.46913046 1.86249181 12.93890421 2.28173828 19.40917969 C2.42491676 21.60073936 2.57034771 23.79215328 2.71826172 25.98339844 C3.66341063 40.01275162 4.21263912 53.93825398 4 68 C0.7 68 -2.6 68 -6 68 C-6 67.67 -6 67.34 -6 67 C-3.36 67 -0.72 67 2 67 C1.96241577 66.41499222 1.92483154 65.82998444 1.8861084 65.22724915 C1.4918752 59.07815743 1.10346189 52.92871677 0.71826172 46.77905273 C0.57421352 44.49119995 0.42873553 42.20343668 0.28173828 39.91577148 C-1.7750133 7.86822382 -1.7750133 7.86822382 0 0 Z " fill="#29B242" transform="translate(1425,301)"/>
<path d="M0 0 C4.67925341 1.45576773 7.76887554 4.18690843 11.25 7.5 C11.81630127 8.03173828 12.38260254 8.56347656 12.96606445 9.11132812 C26.1987952 21.67933277 26.1987952 21.67933277 29 28 C27.1875 27.8125 27.1875 27.8125 25 27 C23.95355934 25.36209288 22.9601817 23.68991979 22 22 C20.35907986 20.30797854 18.68816933 18.64488294 17 17 C16.11441406 16.1028125 15.22882812 15.205625 14.31640625 14.28125 C9.7043121 9.62336201 5.0957495 5.13168879 0 1 C0 0.67 0 0.34 0 0 Z " fill="#1541A5" transform="translate(957,292)"/>
<path d="M0 0 C5.78408559 -0.0494009 11.56804864 -0.08572 17.35229492 -0.10986328 C19.32041564 -0.11992707 21.28852138 -0.13357934 23.2565918 -0.15087891 C26.08385918 -0.17511059 28.91092905 -0.18647923 31.73828125 -0.1953125 C32.61962234 -0.20563507 33.50096344 -0.21595764 34.40901184 -0.22659302 C35.22963608 -0.22674408 36.05026031 -0.22689514 36.89575195 -0.22705078 C37.61745071 -0.231492 38.33914948 -0.23593323 39.0827179 -0.24050903 C41 0 41 0 44 2 C41.69 2.33 39.38 2.66 37 3 C37 2.34 37 1.68 37 1 C35.88625 1.165 34.7725 1.33 33.625 1.5 C22.53755918 2.72998551 11.04539285 2.42521198 0 1 C0 0.67 0 0.34 0 0 Z " fill="#1FB834" transform="translate(1287,255)"/>
<path d="M0 0 C2.39927176 3.59890764 4.54052631 7.30944398 6.6875 11.0625 C7.11611328 11.79533203 7.54472656 12.52816406 7.98632812 13.28320312 C8.38658203 13.98509766 8.78683594 14.68699219 9.19921875 15.41015625 C9.56877686 16.05090088 9.93833496 16.69164551 10.3190918 17.35180664 C10.5437915 17.89571045 10.76849121 18.43961426 11 19 C10.67 19.66 10.34 20.32 10 21 C3.26992339 14.23862071 0 9.76322215 0 0 Z " fill="#17AF34" transform="translate(207,425)"/>
<path d="M0 0 C1.14726563 0.00451172 2.29453125 0.00902344 3.4765625 0.01367188 C6.27609813 0.02533661 9.07551986 0.04170386 11.875 0.0625 C11.875 0.3925 11.875 0.7225 11.875 1.0625 C5.605 1.3925 -0.665 1.7225 -7.125 2.0625 C-7.125 2.3925 -7.125 2.7225 -7.125 3.0625 C-11.58 3.5575 -11.58 3.5575 -16.125 4.0625 C-16.125 3.7325 -16.125 3.4025 -16.125 3.0625 C-18.435 2.7325 -20.745 2.4025 -23.125 2.0625 C-23.125 1.7325 -23.125 1.4025 -23.125 1.0625 C-15.39714866 0.09296618 -7.78166099 -0.05881488 0 0 Z " fill="#5ECD6F" transform="translate(1616.125,253.9375)"/>
<path d="M0 0 C0.33 0.66 0.66 1.32 1 2 C-2.8633724 6.48685613 -6.75124198 10.86926304 -11 15 C-11.598125 15.598125 -12.19625 16.19625 -12.8125 16.8125 C-13.204375 17.204375 -13.59625 17.59625 -14 18 C-14.66 17.67 -15.32 17.34 -16 17 C-14.27227744 15.10283355 -12.54287266 13.20724695 -10.8125 11.3125 C-10.32974609 10.78205078 -9.84699219 10.25160156 -9.34960938 9.70507812 C-6.312614 6.38272748 -3.2063098 3.15941679 0 0 Z " fill="#13AF31" transform="translate(1478,326)"/>
<path d="M0 0 C0.99 0.185625 1.98 0.37125 3 0.5625 C3 1.2225 3 1.8825 3 2.5625 C1.96875 2.913125 0.9375 3.26375 -0.125 3.625 C-4.62029055 5.51100785 -7.1346041 8.73147617 -10 12.5625 C-10.66 11.5725 -11.32 10.5825 -12 9.5625 C-4.6302149 -0.08521868 -4.6302149 -0.08521868 0 0 Z " fill="#0D42A3" transform="translate(282,252.4375)"/>
<path d="M0 0 C6.96327638 -0.33693273 12.43345544 0.6969113 19 3 C19 3.66 19 4.32 19 5 C9.595 3.515 9.595 3.515 0 2 C0 1.34 0 0.68 0 0 Z " fill="#224DA6" transform="translate(866,334)"/>
<path d="M0 0 C0 0.33 0 0.66 0 1 C-1.98 1 -3.96 1 -6 1 C-6 1.66 -6 2.32 -6 3 C-7.98 3 -9.96 3 -12 3 C-12 5.31 -12 7.62 -12 10 C-12.66 10 -13.32 10 -14 10 C-14 7.03 -14 4.06 -14 1 C-9.23692563 0.04738513 -4.8333472 -0.08333357 0 0 Z " fill="#39C04C" transform="translate(75,255)"/>
<path d="M0 0 C0 3 0 3 -1.3125 4.375 C-1.869375 4.91125 -2.42625 5.4475 -3 6 C-3.495 6.825 -3.99 7.65 -4.5 8.5 C-5.83312742 10.72187904 -7.09367418 12.27522902 -9 14 C-9.99 13.67 -10.98 13.34 -12 13 C-8.04 8.71 -4.08 4.42 0 0 Z " fill="#1A49A7" transform="translate(1872,289)"/>
<path d="M0 0 C0.99 0 1.98 0 3 0 C2.76228882 0.82902832 2.76228882 0.82902832 2.51977539 1.67480469 C1.95067733 4.22064305 1.7896572 6.59699445 1.68359375 9.203125 C1.64169922 10.1828125 1.59980469 11.1625 1.55664062 12.171875 C1.51732422 13.18765625 1.47800781 14.2034375 1.4375 15.25 C1.39431641 16.28125 1.35113281 17.3125 1.30664062 18.375 C1.20074318 20.9165387 1.09866557 23.45817196 1 26 C0.67 26 0.34 26 0 26 C0 17.42 0 8.84 0 0 Z " fill="#02309A" transform="translate(215,381)"/>
<path d="M0 0 C0.33 0.99 0.66 1.98 1 3 C-0.57347176 4.035969 -2.15921546 5.05331732 -3.75 6.0625 C-4.63171875 6.63097656 -5.5134375 7.19945312 -6.421875 7.78515625 C-9 9 -9 9 -11.328125 8.68359375 C-12.15570312 8.34521484 -12.15570312 8.34521484 -13 8 C-12.14535156 7.50628906 -11.29070312 7.01257813 -10.41015625 6.50390625 C-9.30542969 5.86324219 -8.20070313 5.22257812 -7.0625 4.5625 C-5.96035156 3.92441406 -4.85820313 3.28632813 -3.72265625 2.62890625 C-1.1716429 1.25289773 -1.1716429 1.25289773 0 0 Z " fill="#1DB335" transform="translate(1655,464)"/>
<path d="M0 0 C3.7952131 1.49097658 5.61042731 3.75700849 8 7 C7.34 7.66 6.68 8.32 6 9 C5.443125 8.175 4.88625 7.35 4.3125 6.5 C2.25072867 3.7254586 2.25072867 3.7254586 -0.75 3.6875 C-1.4925 3.790625 -2.235 3.89375 -3 4 C-2.01 2.68 -1.02 1.36 0 0 Z " fill="#2FB743" transform="translate(1514,417)"/>
<path d="M0 0 C1.74325447 2.6148817 2.41587957 4.0053433 3.125 6.9375 C3.29257813 7.60652344 3.46015625 8.27554687 3.6328125 8.96484375 C4 11 4 11 4 15 C3.34 15 2.68 15 2 15 C0.53329887 9.77487721 -0.22577402 5.4185766 0 0 Z " fill="#25B440" transform="translate(1752,358)"/>
<path d="M0 0 C0.33 0 0.66 0 1 0 C1.22577402 5.4185766 0.46670113 9.77487721 -1 15 C-1.66 14.67 -2.32 14.34 -3 14 C-2.48594831 9.03083364 -1.76615118 4.70973649 0 0 Z " fill="#38B94B" transform="translate(1160,358)"/>
<path d="M0 0 C0.66 0.33 1.32 0.66 2 1 C-0.64 4.63 -3.28 8.26 -6 12 C-6.99 11.67 -7.98 11.34 -9 11 C-6.03 7.37 -3.06 3.74 0 0 Z " fill="#1C46A4" transform="translate(259,276)"/>
<path d="M0 0 C0.99 0.33 1.98 0.66 3 1 C3 1.99 3 2.98 3 4 C3.99 4.33 4.98 4.66 6 5 C3 7 3 7 -1 7 C-0.67 4.69 -0.34 2.38 0 0 Z " fill="#2349A9" transform="translate(230,322)"/>
<path d="M0 0 C2.23960447 2.87949147 4.29864224 5.76742026 6 9 C5.67 9.66 5.34 10.32 5 11 C2.80003942 9.14438107 0.7468866 7.29514024 -1 5 C-0.875 2.125 -0.875 2.125 0 0 Z " fill="#3AB44B" transform="translate(212,435)"/>
<path d="M0 0 C0.99 0.33 1.98 0.66 3 1 C0.69 3.31 -1.62 5.62 -4 8 C-4.99 7.67 -5.98 7.34 -7 7 C-4.69 4.69 -2.38 2.38 0 0 Z " fill="#1EB138" transform="translate(1401,407)"/>
<path d="M0 0 C0.33 0 0.66 0 1 0 C1.33 2.31 1.66 4.62 2 7 C1.34 7 0.68 7 0 7 C-0.33 10.96 -0.66 14.92 -1 19 C-1.33 19 -1.66 19 -2 19 C-2.24794402 12.4294834 -1.32388229 6.43028541 0 0 Z " fill="#5576BA" transform="translate(436,372)"/>
<path d="M0 0 C0.33 0.99 0.66 1.98 1 3 C-1.64 5.31 -4.28 7.62 -7 10 C-7.66 9.34 -8.32 8.68 -9 8 C-6.03 5.36 -3.06 2.72 0 0 Z " fill="#1DB838" transform="translate(215,142)"/>
<path d="M0 0 C0.33 0.66 0.66 1.32 1 2 C-1.31 4.64 -3.62 7.28 -6 10 C-6.33 9.01 -6.66 8.02 -7 7 C-4.69 4.69 -2.38 2.38 0 0 Z " fill="#19AF33" transform="translate(1471,457)"/>
<path d="M0 0 C0.33 0.99 0.66 1.98 1 3 C-0.40445835 5.2636564 -2.1967913 7.0208685 -4 9 C-4.99 8.67 -5.98 8.34 -7 8 C-4.69 5.36 -2.38 2.72 0 0 Z " fill="#1646A5" transform="translate(915,454)"/>
<path d="M0 0 C0 3.58912412 -0.66436554 4.10857029 -3 6.6875 C-3.556875 7.31011719 -4.11375 7.93273437 -4.6875 8.57421875 C-5.120625 9.04472656 -5.55375 9.51523437 -6 10 C-6.66 9.67 -7.32 9.34 -8 9 C-5.36 6.03 -2.72 3.06 0 0 Z " fill="#22B339" transform="translate(1470,334)"/>
<path d="M0 0 C1.670625 0.061875 1.670625 0.061875 3.375 0.125 C3.375 0.785 3.375 1.445 3.375 2.125 C1.065 2.785 -1.245 3.445 -3.625 4.125 C-4.285 3.465 -4.945 2.805 -5.625 2.125 C-3.625 0.125 -3.625 0.125 0 0 Z " fill="#2752AC" transform="translate(281.625,252.875)"/>
<path d="M0 0 C3 1 3 1 4.75 3.9375 C5.1625 4.948125 5.575 5.95875 6 7 C5.67 7.66 5.34 8.32 5 9 C1.9083091 6.47043472 1.09068668 3.77545388 0 0 Z " fill="#29B443" transform="translate(1740,333)"/>
<path d="M0 0 C0 0.99 0 1.98 0 3 C-3.375 3.625 -3.375 3.625 -7 4 C-7.66 3.34 -8.32 2.68 -9 2 C-2.25 0 -2.25 0 0 0 Z " fill="#20B73A" transform="translate(264,118)"/>
<path d="M0 0 C0 3.90838866 -1.50567876 5.11594107 -4 8 C-4.99 7.67 -5.98 7.34 -7 7 C-4.69 4.69 -2.38 2.38 0 0 Z " fill="#28B33E" transform="translate(1415,392)"/>
<path d="M0 0 C0.88492145 2.47778006 1.11637742 3.66056586 0.25 6.1875 C-1 8 -1 8 -4 9 C-2.94124926 5.59687262 -1.99097846 2.98646769 0 0 Z " fill="#3B61B3" transform="translate(451,334)"/>
<path d="M0 0 C1.4370809 -0.05422947 2.87475462 -0.09289723 4.3125 -0.125 C5.11300781 -0.14820313 5.91351562 -0.17140625 6.73828125 -0.1953125 C9 0 9 0 12 2 C9.69 2.33 7.38 2.66 5 3 C5 2.34 5 1.68 5 1 C3.35 1 1.7 1 0 1 C0 0.67 0 0.34 0 0 Z " fill="#53CA63" transform="translate(1319,255)"/>
<path d="M0 0 C0.66 0 1.32 0 2 0 C1.42655063 2.86724686 1.1385485 3.8614515 -1 6 C-1.99 5.67 -2.98 5.34 -4 5 C-2.71937515 3.2925002 -1.38232443 1.62626404 0 0 Z " fill="#1EB23A" transform="translate(1335,354)"/>
<path d="M0 0 C0.66 0 1.32 0 2 0 C1.38722388 2.96175123 0.74627478 4.38058783 -1 7 C-1.99 6.67 -2.98 6.34 -4 6 C-2.7260411 3.96166576 -1.38938077 1.96147874 0 0 Z " fill="#1944A5" transform="translate(246,293)"/>
<path d="M0 0 C3.45925163 1.2491742 6.14693203 2.67527795 9 5 C6 6 6 6 3.375 4.75 C1 3 1 3 0 0 Z " fill="#24BA3E" transform="translate(1374,269)"/>
<path d="M0 0 C0.66 0.33 1.32 0.66 2 1 C2 1.66 2 2.32 2 3 C0.35 3.66 -1.3 4.32 -3 5 C-3.66 4.34 -4.32 3.68 -5 3 C-2.625 1.4375 -2.625 1.4375 0 0 Z " fill="#28BB41" transform="translate(243,125)"/>
</svg>
